<?xml version="1.0" standalone="no"?>
<!DOCTYPE svg PUBLIC "-//W3C//DTD SVG 20010904//EN"
 "http://www.w3.org/TR/2001/REC-SVG-20010904/DTD/svg10.dtd">
<svg version="1.0" xmlns="http://www.w3.org/2000/svg"
 width="1024.000000pt" height="553.000000pt" viewBox="0 0 1024.000000 553.000000"
 preserveAspectRatio="xMidYMid meet">

<g transform="translate(0.000000,553.000000) scale(0.100000,-0.100000)"
fill="#000000" stroke="none">
<path d="M2410 4134 c-162 -25 -269 -58 -401 -125 -277 -141 -481 -400 -567
-718 -23 -87 -25 -113 -25 -281 0 -156 3 -197 20 -260 49 -177 122 -325 223
-449 l52 -63 -47 -48 c-26 -27 -63 -52 -83 -58 -29 -9 -93 -68 -279 -254 -211
-213 -243 -249 -253 -288 -32 -118 76 -225 193 -191 35 11 81 52 279 249 217
215 264 271 281 333 3 8 27 34 54 56 l48 40 81 -46 c323 -186 745 -188 1079
-6 561 306 750 1024 415 1580 -170 282 -453 471 -776 520 -91 14 -232 18 -294
9z m307 -253 c419 -87 715 -481 690 -919 -13 -236 -108 -438 -280 -598 -178
-166 -390 -243 -637 -231 -413 20 -744 303 -825 706 -26 126 -17 317 20 431
145 450 576 705 1032 611z"/>
<path d="M2403 3622 c-104 -37 -166 -95 -217 -202 -27 -58 -31 -75 -31 -155 0
-80 4 -97 31 -156 43 -89 93 -142 172 -181 62 -31 74 -33 167 -33 93 0 105 2
167 33 276 136 272 541 -7 677 -77 38 -202 45 -282 17z"/>
<path d="M2365 2780 c-194 -26 -322 -106 -393 -247 l-22 -42 64 -50 c184 -147
375 -213 567 -197 180 15 322 79 483 220 l39 34 -28 48 c-65 110 -163 184
-290 218 -73 20 -320 29 -420 16z"/>
<path d="M4110 3355 l0 -555 130 0 130 0 2 240 3 240 55 -73 c31 -39 114 -147
185 -239 l129 -168 159 0 159 0 -83 108 c-46 59 -147 187 -225 284 l-143 177
111 138 c61 76 152 192 201 258 50 66 94 126 100 133 7 9 -22 12 -141 12
l-151 0 -178 -246 -178 -246 -3 246 -2 246 -130 0 -130 0 0 -555z"/>
<path d="M5162 3513 c4 -374 5 -401 25 -454 68 -183 202 -269 420 -269 229 0
390 118 432 318 7 33 11 192 11 427 l0 375 -127 0 -128 0 0 -368 0 -367 -25
-50 c-35 -69 -90 -98 -177 -92 -75 6 -124 33 -149 85 -17 34 -19 70 -22 415
l-3 377 -130 0 -130 0 3 -397z"/>
<path d="M6503 2509 c-215 -36 -382 -199 -429 -419 -43 -203 12 -407 145 -541
102 -102 201 -146 357 -156 164 -11 311 39 424 143 120 112 172 234 174 409 0
87 -4 124 -21 180 -89 281 -348 434 -650 384z m257 -277 c105 -52 157 -159
148 -307 -11 -176 -123 -285 -293 -285 -119 0 -212 56 -262 158 -25 50 -28 68
-28 152 0 81 4 103 26 150 28 60 74 112 121 136 79 41 201 39 288 -4z"/>
<path d="M4060 2378 l0 -118 145 0 145 0 0 -422 0 -423 130 0 130 0 0 423 0
422 143 0 142 0 -2 115 -2 115 -415 3 -416 2 0 -117z"/>
<path d="M5030 1955 l0 -540 130 0 130 0 0 218 0 217 185 0 185 0 0 -217 0
-218 130 0 130 0 0 540 0 540 -130 0 -130 0 0 -207 0 -208 -185 0 -185 0 0
208 0 207 -130 0 -130 0 0 -540z"/>
<path d="M7310 1955 l0 -540 302 2 303 1 3 116 3 116 -176 0 -175 0 0 423 0
422 -130 0 -130 0 0 -540z"/>
<path d="M8230 2105 c-79 -214 -167 -455 -196 -534 -30 -79 -54 -147 -54 -150
0 -3 60 -6 134 -6 l135 0 36 98 37 97 188 0 188 0 30 -82 c16 -46 31 -89 33
-97 4 -10 36 -14 142 -15 75 0 137 0 137 1 0 1 -66 190 -146 420 -80 230 -164
471 -186 535 l-39 117 -149 3 -148 3 -142 -390z m344 -90 c31 -99 56 -183 56
-187 0 -5 -54 -8 -121 -8 -93 0 -120 3 -116 13 2 6 31 92 62 189 32 98 60 177
61 175 2 -1 28 -84 58 -182z"/>
</g>
</svg>
